<svg width="33" height="33" viewBox="0 0 33 33" fill="none" xmlns="http://www.w3.org/2000/svg">
<mask id="path-1-inside-1_972_10497" fill="white">
<path fill-rule="evenodd" clip-rule="evenodd" d="M14.8661 2.91602C10.9 2.91602 8.79038 9.61985 7.22973 14.5792L7.11157 14.9545C3.1599 18.2128 1.36375 25.2584 8.29624 27.9637C15.2287 30.6691 22.2038 29.411 24.6226 27.6518C27.6729 25.4334 28.3662 18.9167 24.6226 15.4157C28.9556 11.3106 32.1622 6.41784 28.9556 4.5661C26.4945 3.14491 22.1189 6.67924 19.0593 12.7363C17.5774 12.46 15.5168 12.4058 13.578 12.7363C13.855 11.9961 14.2205 11.159 14.5985 10.2932C16.1095 6.83276 17.8198 2.91602 14.8661 2.91602ZM11.8861 19.4936C11.8861 20.702 11.2294 21.6815 10.4193 21.6815C9.60915 21.6815 8.95241 20.702 8.95241 19.4936C8.95241 18.2853 9.60915 17.3058 10.4193 17.3058C11.2294 17.3058 11.8861 18.2853 11.8861 19.4936ZM17.9662 22.1204C18.7763 22.1204 19.433 21.1409 19.433 19.9325C19.433 18.7242 18.7763 17.7447 17.9662 17.7447C17.156 17.7447 16.4993 18.7242 16.4993 19.9325C16.4993 21.1409 17.156 22.1204 17.9662 22.1204Z"/>
</mask>
<path fill-rule="evenodd" clip-rule="evenodd" d="M14.8661 2.91602C10.9 2.91602 8.79038 9.61985 7.22973 14.5792L7.11157 14.9545C3.1599 18.2128 1.36375 25.2584 8.29624 27.9637C15.2287 30.6691 22.2038 29.411 24.6226 27.6518C27.6729 25.4334 28.3662 18.9167 24.6226 15.4157C28.9556 11.3106 32.1622 6.41784 28.9556 4.5661C26.4945 3.14491 22.1189 6.67924 19.0593 12.7363C17.5774 12.46 15.5168 12.4058 13.578 12.7363C13.855 11.9961 14.2205 11.159 14.5985 10.2932C16.1095 6.83276 17.8198 2.91602 14.8661 2.91602ZM11.8861 19.4936C11.8861 20.702 11.2294 21.6815 10.4193 21.6815C9.60915 21.6815 8.95241 20.702 8.95241 19.4936C8.95241 18.2853 9.60915 17.3058 10.4193 17.3058C11.2294 17.3058 11.8861 18.2853 11.8861 19.4936ZM17.9662 22.1204C18.7763 22.1204 19.433 21.1409 19.433 19.9325C19.433 18.7242 18.7763 17.7447 17.9662 17.7447C17.156 17.7447 16.4993 18.7242 16.4993 19.9325C16.4993 21.1409 17.156 22.1204 17.9662 22.1204Z" fill="#8F8FFF"/>
<path d="M7.22973 14.5792L9.57763 15.3185L9.57775 15.3181L7.22973 14.5792ZM7.11157 14.9545L8.67755 16.8536L9.24039 16.3896L9.45947 15.6937L7.11157 14.9545ZM8.29624 27.9637L7.40137 30.2569H7.40137L8.29624 27.9637ZM24.6226 27.6518L26.0704 29.6425H26.0704L24.6226 27.6518ZM24.6226 15.4157L22.9297 13.6287L21.0313 15.4273L22.9413 17.2135L24.6226 15.4157ZM28.9556 4.5661L30.1865 2.43445V2.43445L28.9556 4.5661ZM19.0593 12.7363L18.6081 15.1561L20.4237 15.4946L21.2564 13.8462L19.0593 12.7363ZM13.578 12.7363L11.2726 11.8737L9.77283 15.882L13.9917 15.1628L13.578 12.7363ZM14.5985 10.2932L12.3427 9.30822L12.3427 9.30823L14.5985 10.2932ZM9.57775 15.3181C10.3752 12.784 11.2283 10.0996 12.3203 8.04163C13.5141 5.79173 14.4134 5.37755 14.8661 5.37755V0.454477C11.3526 0.454477 9.21412 3.39222 7.97148 5.73407C6.62698 8.26789 5.64491 11.4151 4.88171 13.8403L9.57775 15.3181ZM9.45947 15.6937L9.57763 15.3185L4.88183 13.8399L4.76367 14.2152L9.45947 15.6937ZM9.19111 25.6706C7.83514 25.1415 7.08214 24.4735 6.66432 23.8609C6.24779 23.2502 6.05838 22.5403 6.08274 21.7415C6.13421 20.0536 7.15713 18.1073 8.67755 16.8536L5.54559 13.0553C3.11434 15.06 1.26335 18.2657 1.16195 21.5915C1.10987 23.2995 1.52429 25.0619 2.59724 26.635C3.66892 28.2062 5.29109 29.4333 7.40137 30.2569L9.19111 25.6706ZM23.1748 25.6611C22.4953 26.1553 20.6744 26.8449 17.9866 27.026C15.3926 27.2008 12.2827 26.8771 9.19111 25.6706L7.40137 30.2569C11.2423 31.7558 15.0862 32.1557 18.3175 31.9379C21.4551 31.7265 24.3311 30.9075 26.0704 29.6425L23.1748 25.6611ZM22.9413 17.2135C24.1862 18.3778 24.7766 20.1332 24.7105 21.9238C24.6415 23.7881 23.8963 25.1364 23.1748 25.6611L26.0704 29.6425C28.3993 27.9488 29.5258 24.9295 29.6302 22.1056C29.7373 19.208 28.8026 15.9545 26.3039 13.6178L22.9413 17.2135ZM27.7246 6.69775C27.8396 6.76414 27.8404 6.7925 27.8139 6.75234C27.7859 6.70989 27.7886 6.68411 27.7927 6.72346C27.8072 6.86109 27.7758 7.29047 27.3964 8.08261C26.646 9.64947 25.0143 11.6537 22.9297 13.6287L26.3156 17.2026C28.5638 15.0725 30.702 12.5779 31.8365 10.2091C32.3996 9.03349 32.8393 7.63592 32.6886 6.20708C32.5205 4.61268 31.6455 3.27696 30.1865 2.43445L27.7246 6.69775ZM21.2564 13.8462C22.6765 11.0348 24.3412 8.94069 25.7928 7.75017C26.5221 7.15208 27.0958 6.86554 27.4676 6.76097C27.8095 6.66484 27.8252 6.75586 27.7246 6.69775L30.1865 2.43445C28.8553 1.66574 27.4012 1.66561 26.1349 2.02173C24.8985 2.36942 23.7256 3.07856 22.6709 3.94353C20.5546 5.67915 18.5017 8.38072 16.8621 11.6264L21.2564 13.8462ZM13.9917 15.1628C15.6458 14.8808 17.4137 14.9334 18.6081 15.1561L19.5104 10.3164C17.7412 9.98659 15.3877 9.93074 13.1644 10.3098L13.9917 15.1628ZM12.3427 9.30823C11.9721 10.1569 11.5774 11.0592 11.2726 11.8737L15.8835 13.5989C16.1326 12.9331 16.4689 12.161 16.8544 11.2783L12.3427 9.30823ZM14.8661 5.37755C15.0301 5.37755 14.4627 5.38115 14.1254 4.76727C13.9387 4.42736 14.0809 4.31747 13.9819 4.88235C13.7974 5.93634 13.1455 7.46965 12.3427 9.30822L16.8544 11.2783C17.5626 9.65636 18.5213 7.50105 18.8312 5.73155C18.9795 4.88469 19.0899 3.57933 18.4403 2.39689C17.6402 0.940471 16.1789 0.454477 14.8661 0.454477V5.37755ZM10.4193 24.143C11.8969 24.143 12.9393 23.2493 13.5011 22.4115C14.0735 21.5577 14.3477 20.5188 14.3477 19.4936H9.42461C9.42461 19.6768 9.37044 19.7319 9.41197 19.6699C9.44281 19.6239 9.75177 19.22 10.4193 19.22V24.143ZM6.49088 19.4936C6.49088 20.5188 6.76507 21.5577 7.33751 22.4115C7.89925 23.2493 8.94164 24.143 10.4193 24.143V19.22C11.0868 19.22 11.3958 19.6239 11.4266 19.6699C11.4681 19.7319 11.414 19.6768 11.414 19.4936H6.49088ZM10.4193 14.8442C8.94164 14.8442 7.89925 15.7379 7.33751 16.5758C6.76507 17.4296 6.49088 18.4685 6.49088 19.4936H11.414C11.414 19.3105 11.4681 19.2554 11.4266 19.3173C11.3958 19.3633 11.0868 19.7673 10.4193 19.7673V14.8442ZM14.3477 19.4936C14.3477 18.4685 14.0735 17.4296 13.5011 16.5758C12.9393 15.7379 11.8969 14.8442 10.4193 14.8442V19.7673C9.75177 19.7673 9.44281 19.3633 9.41197 19.3173C9.37044 19.2554 9.42461 19.3105 9.42461 19.4936H14.3477ZM16.9715 19.9325C16.9715 20.1157 16.9173 20.1708 16.9588 20.1088C16.9897 20.0628 17.2986 19.6589 17.9662 19.6589V24.582C19.4438 24.582 20.4862 23.6882 21.0479 22.8504C21.6204 21.9966 21.8946 20.9577 21.8946 19.9325H16.9715ZM17.9662 20.2062C17.2986 20.2062 16.9897 19.8023 16.9588 19.7563C16.9173 19.6943 16.9715 19.7494 16.9715 19.9325H21.8946C21.8946 18.9074 21.6204 17.8685 21.0479 17.0147C20.4862 16.1769 19.4438 15.2831 17.9662 15.2831V20.2062ZM18.9608 19.9325C18.9608 19.7494 19.015 19.6943 18.9735 19.7563C18.9426 19.8023 18.6337 20.2062 17.9662 20.2062V15.2831C16.4885 15.2831 15.4461 16.1769 14.8844 17.0147C14.3119 17.8685 14.0378 18.9074 14.0378 19.9325H18.9608ZM17.9662 19.6589C18.6337 19.6589 18.9426 20.0628 18.9735 20.1088C19.015 20.1708 18.9608 20.1157 18.9608 19.9325H14.0378C14.0378 20.9577 14.3119 21.9966 14.8844 22.8504C15.4461 23.6882 16.4885 24.582 17.9662 24.582V19.6589Z" fill="#8F8FFF" mask="url(#path-1-inside-1_972_10497)"/>
</svg>
