<svg width="14" height="14" viewBox="0 0 14 14" fill="none" xmlns="http://www.w3.org/2000/svg">
<path d="M7.22365 1.05109C8.25188 0.859244 9.09496 1.2381 9.73537 1.68098C10.2188 2.01044 10.6268 2.43917 10.9326 2.93781L10.9453 2.95832L10.9561 2.97883C11.2937 3.59052 11.3844 4.30816 11.21 4.98469C11.0905 5.46965 10.9216 5.94195 10.7051 6.39191C10.9529 6.38309 11.1986 6.44163 11.416 6.56086C11.6334 6.68011 11.8147 6.85594 11.9404 7.06965C12.1819 7.47262 12.2513 7.95555 12.1328 8.40949L12.0645 8.67023C11.808 9.65406 11.2583 10.5367 10.4873 11.1995C10.1848 11.458 9.84532 11.7303 9.44533 11.9613L9.43165 11.97C9.23066 12.086 8.98943 12.2255 8.73244 12.348C8.13744 12.649 7.49452 12.846 6.83302 12.931C6.40613 12.9864 5.97532 13.0089 5.54494 12.9974H5.53615C4.61671 12.9641 3.73181 12.6367 3.01271 12.0628L3.00685 12.0579L3.00099 12.0521C2.27847 11.4575 1.78671 10.6292 1.61037 9.71027C1.48362 9.08823 1.46559 8.4486 1.55861 7.82063C1.69413 6.90188 1.99244 6.01453 2.43947 5.20051C2.78148 4.54791 3.1897 3.93188 3.65626 3.36164C4.16339 2.74237 4.76351 2.20558 5.43556 1.77082C5.97789 1.41785 6.5841 1.1732 7.21974 1.05207H7.22169L7.22365 1.05109ZM9.15333 2.52961C8.62983 2.16661 8.06562 1.94031 7.41212 2.06281C6.90765 2.15896 6.42648 2.35292 5.99611 2.63313C5.41304 3.01018 4.89203 3.47575 4.45216 4.01301C4.02758 4.53179 3.65737 5.0928 3.34669 5.68684C2.95569 6.39604 2.69438 7.16984 2.57619 7.97102C2.50029 8.48287 2.51515 9.00416 2.61915 9.51105C2.7494 10.1965 3.11554 10.8148 3.65431 11.2581C4.20114 11.6945 4.8741 11.9437 5.57326 11.9691C5.95016 11.9794 6.32733 11.9604 6.70119 11.9114C7.25111 11.8413 7.78541 11.6769 8.27931 11.4251C8.50226 11.3196 8.71722 11.1951 8.93068 11.0716C9.24864 10.8881 9.53143 10.6632 9.8174 10.4183C10.429 9.8922 10.8657 9.19205 11.0693 8.41145L11.1377 8.14973C11.1861 7.96342 11.1579 7.76479 11.0586 7.59895C11.0261 7.54579 10.9807 7.50124 10.9268 7.47004C10.8728 7.43889 10.8114 7.42183 10.749 7.42023C10.6866 7.41869 10.624 7.43275 10.5684 7.46125C10.513 7.48975 10.4658 7.53184 10.4307 7.58332C10.1397 8.00381 9.82718 8.40801 9.45119 8.76301C9.18423 8.99446 8.90522 9.2105 8.61427 9.41047C7.85127 9.89297 6.95618 10.1245 6.05568 10.0745C5.82088 10.0638 5.59681 9.97262 5.42091 9.81672C5.24502 9.66075 5.12763 9.44897 5.08888 9.21711C5.01862 8.85145 5.00665 8.47612 5.05372 8.10676C5.10093 7.62632 5.23968 7.15933 5.46193 6.73078C5.81687 5.98569 6.25642 5.28384 6.7715 4.63898C7.02635 4.33198 7.29542 4.03674 7.57814 3.7552C7.73816 3.58036 7.9479 3.45842 8.17872 3.40461C8.21024 3.42148 8.2384 3.4441 8.26076 3.47199C8.28324 3.50011 8.30004 3.53298 8.30958 3.5677C8.31909 3.60231 8.32132 3.63859 8.31642 3.67414C8.31148 3.70972 8.29885 3.74398 8.28029 3.77473L8.15626 4.05695C7.99486 4.42224 7.83437 4.78769 7.69044 5.16047C7.51548 5.53889 7.44769 5.95845 7.49513 6.37336C7.55994 6.66257 7.69913 6.93029 7.89943 7.14875C8.09971 7.36717 8.35425 7.52888 8.63673 7.61848C8.73197 7.65166 8.83687 7.64563 8.92775 7.60188C9.01841 7.55806 9.08773 7.48009 9.12111 7.38508C9.2851 7.0296 9.44597 6.6732 9.60646 6.31672L9.71779 6.0677C9.93346 5.64328 10.0998 5.19517 10.2129 4.73273C10.3238 4.30937 10.2671 3.85927 10.0557 3.4759C9.82515 3.10022 9.51787 2.77738 9.15333 2.52961Z" fill="#461816"/>
</svg>
