<svg width="101" height="100" viewBox="0 0 101 100" fill="none" xmlns="http://www.w3.org/2000/svg">
<path d="M34.0696 10.5114C36.0139 9.68378 39.6594 8.68589 42.3084 8.27209C44.3013 7.93139 46.5129 7.85838 52.3942 7.83398H80.7532H96.3068C95.1938 21.2155 83.0075 21.3025 80.7532 21.5373C78.499 21.772 61.0219 21.5373 61.0219 21.5373C45.4192 21.732 43.3778 21.9754 38.6386 23.9712C31.9067 26.819 26.8273 31.6382 23.6193 38.2099C21.6993 42.1286 21.2619 43.9541 21.0188 49.3575C20.6543 56.4647 22.8659 62.6713 27.848 68.7075C30.4242 71.823 35.6737 75.4009 39.7566 76.8126C43.1833 78.0053 44.0825 78.1513 48.1412 78.2973C51.6408 78.419 52.4671 78.3703 54.6544 77.9079C57.4493 77.3237 60.0011 76.3745 62.8446 74.8654C67.8267 72.2124 72.1284 67.5879 74.6559 62.1845C77.0377 57.0732 77.9126 50.0147 76.4544 47.7024C76.1384 47.1913 75.5552 46.5584 75.1663 46.2907C73.5623 45.1224 73.3679 45.1224 60.1469 45.2441L47.728 45.3901L46.7073 46.0716C46.1483 46.4367 45.3706 47.2643 44.9575 47.8728C44.0339 49.3575 44.0339 50.5745 44.9332 52.3513C45.4678 53.4465 45.8081 53.7873 46.9017 54.3228L48.2384 55.0043H57.7895H67.3407V55.5884C67.3407 56.2456 66.1255 58.996 65.1777 60.4807C61.3621 66.4926 54.0955 69.9732 47.1448 69.1213C42.4542 68.5615 38.7116 66.7603 35.5521 63.5475C32.5872 60.5537 30.8616 57.1705 30.254 53.1788C29.209 46.4367 31.8338 39.5243 36.9374 35.4595C39.4649 33.488 41.2148 32.5631 44.0339 31.7356L46.3184 31.0541L59.6852 31.1271C67.4622 31.1514 73.7081 31.2731 74.6316 31.4435C76.6731 31.7599 79.3951 32.5631 80.4644 33.1716C82.6517 34.3886 83.5509 34.9484 84.1099 35.4595C84.4501 35.776 84.7661 36.0194 84.8633 36.0194C85.1306 36.0194 86.7103 37.6014 87.2693 38.4533C87.5852 38.9158 87.9255 39.3539 87.9984 39.4269C88.7275 40.0841 90.6717 44.952 91.0849 47.0939C91.7411 50.5988 91.0363 58.4605 89.6753 62.72C87.002 71.1415 81.3879 79.2222 74.8747 84.0658C67.0247 89.883 58.5915 92.7303 49.2348 92.7303C42.0654 92.7303 36.1597 91.3673 30.1568 88.3496C19.8523 83.1653 12.2454 74.403 8.81872 63.7666C7.67642 60.1886 7.43342 59.1664 6.94732 55.7345C5.70782 46.8505 7.65212 37.0903 12.2697 29.2042C15.9395 22.9003 21.3591 17.4239 27.605 13.7242C30.0596 12.2638 30.5457 12.0205 32.1011 11.3389C32.5629 11.1442 33.4621 10.7791 34.0696 10.5114Z" fill="black"/>
</svg>
