<svg width="400" height="400" viewBox="0 0 400 400" fill="none" xmlns="http://www.w3.org/2000/svg">
<path d="M307.604 208.34H354.75C363.998 208.34 371.489 215.831 371.489 225.079V252.892C371.489 262.14 363.998 269.631 354.75 269.631H313.629C309.186 269.631 304.928 271.4 301.787 274.54L231.225 345.091C228.084 348.232 223.827 350 219.383 350H185.463C176.39 350 168.956 342.765 168.724 333.691L167.991 305.297C167.747 295.886 175.308 288.115 184.73 288.115H213.927C218.371 288.115 222.629 286.347 225.769 283.206L295.739 213.237C298.879 210.097 303.137 208.328 307.58 208.328L307.604 208.34Z" fill="#7428F9"/>
<path d="M167.619 50H214.765C224.013 50 231.504 57.4913 231.504 66.739V94.552C231.504 103.8 224.013 111.291 214.765 111.291H173.644C169.201 111.291 164.943 113.06 161.802 116.2L91.24 186.763C88.099 189.904 83.842 191.672 79.398 191.672H45.4777C36.4044 191.672 28.9712 184.436 28.7386 175.363L28.0058 146.968C27.7615 137.558 35.3226 129.799 44.7449 129.799H73.942C78.386 129.799 82.643 128.031 85.784 124.89L155.753 54.9205C158.894 51.7798 163.152 50.0116 167.595 50.0116L167.619 50Z" fill="#FF3475"/>
<path d="M307.603 85.8281H354.75C363.997 85.8281 371.489 93.3191 371.489 102.567V130.38C371.489 139.628 363.997 147.119 354.75 147.119H313.629C309.185 147.119 304.928 148.887 301.787 152.028L231.225 222.59C228.084 225.731 223.826 227.499 219.383 227.499H178.169C173.853 227.499 169.701 229.163 166.583 232.152L87.366 308.066C84.248 311.055 80.096 312.719 75.78 312.719H46.9083C37.6605 312.719 30.1692 305.216 30.1692 295.98V267.399C30.1692 258.151 37.6605 250.66 46.9083 250.66H75.571C80.014 250.66 84.272 248.891 87.413 245.751L162.64 170.524C165.78 167.383 170.038 165.615 174.481 165.615H213.927C218.371 165.615 222.628 163.847 225.769 160.706L295.738 90.7371C298.879 87.5961 303.136 85.8281 307.58 85.8281H307.603Z" fill="#F77DFD"/>
</svg>
