<svg width="88" height="88" viewBox="0 0 88 88" fill="none" xmlns="http://www.w3.org/2000/svg">
<g clip-path="url(#clip0_2014_621)">
<path d="M68.0518 4C76.8955 4 84.0645 11.1634 84.0645 20V68C84.0645 76.8366 76.8955 84 68.0518 84H20.0127C11.1691 83.9998 4 76.8365 4 68V20C4 11.1635 11.1691 4.00016 20.0127 4H68.0518ZM28.0713 16.4502C27.798 15.8577 26.8998 14.6252 25.4941 14.4355C25.8065 15.5416 26.3612 17.8962 26.0801 18.4648C25.7287 19.1756 25.0257 19.4125 24.2061 19.6494C23.3861 19.8864 22.7995 19.5309 22.2139 20.0049C21.6282 20.4791 20.9263 21.9008 21.8633 22.8486C22.8003 23.7965 24.4402 24.5075 26.0801 24.626V25.9297C25.6506 26.3247 24.791 27.8495 24.791 30.7881C24.791 33.7269 25.2598 34.9359 25.4941 35.1729C25.3379 36.0024 25.1428 37.5429 25.4941 39.6758C25.7482 41.2178 26.4307 42.3223 26.665 42.7568C26.4699 43.9025 26.2672 46.6433 27.0166 48.4443C27.9537 50.6958 29.3594 52.7102 33.1074 54.7246V59.8203C33.4198 61.4398 33.951 65.1762 33.5762 67.167C33.2014 69.1574 32.6396 70.5243 32.4053 70.959C31.8977 70.959 31.1162 71.4335 31.2334 72.8555H33.5762C33.9277 72.3815 34.7707 71.0773 35.333 69.6553C35.8952 68.2334 36.6612 65.6667 36.9736 64.5605C37.286 65.4694 37.8396 68.0207 37.5586 70.959C37.0509 71.2356 35.9656 72.1447 35.6846 73.5664H38.8477C39.1601 73.2505 39.8311 72.3573 40.0186 71.3145C40.2059 70.2716 40.1747 67.1671 40.1357 65.7451C40.4871 65.3106 41.2139 63.8728 41.3076 61.5977C41.4013 59.3225 41.4238 57.7263 41.4238 57.2129C43.5713 57.9633 49.1557 58.8962 54.3096 56.6211C54.1144 57.1741 53.8146 58.5134 54.4268 59.583C55.7152 61.8344 57.4715 63.0084 57.4717 65.5078C57.4717 68.4702 56.1444 69.9715 55.5977 70.959C55.1682 70.9195 54.3097 71.2197 54.3096 72.7363H57.4717V70.248C57.9402 69.8925 59.0648 68.6598 59.8145 66.5742C60.5639 64.4888 60.6739 62.6246 60.6348 61.9531C60.9862 62.7431 62.1336 64.5842 63.9141 65.627C64.1874 66.6147 64.5935 69.3242 64.0312 72.2627C63.758 72.2627 63.1181 72.4996 62.7432 73.4473H65.9053C66.2957 72.4202 66.9597 69.7029 66.4912 67.0488C66.7646 66.6934 67.3114 65.5558 67.3115 63.8496C67.3115 62.1434 66.7646 60.9263 66.4912 60.5312V56.0283C65.9056 54.9223 64.9682 51.9282 65.9053 48.7998C66.6471 48.7208 68.1778 48.0649 68.3652 46.0742C68.5994 43.5858 67.6622 40.268 65.9053 39.083C64.1483 37.8983 62.7428 39.3202 60.2832 39.3203C57.8234 39.3203 55.7147 37.2551 51.0293 36.2393C45.8754 35.122 40.1748 35.8051 35.6846 35.7656C35.4894 32.5267 34.8882 25.1716 34.0449 21.6641C32.9908 17.2799 29.8283 15.2651 28.0713 14.4355V16.4502Z" fill="black"/>
</g>
<defs>
<clipPath id="clip0_2014_621">
<rect width="88" height="88" fill="white"/>
</clipPath>
</defs>
</svg>
