<svg width="510" height="510" viewBox="0 0 510 510" fill="none" xmlns="http://www.w3.org/2000/svg">
<path d="M120.046 50.6945C124.793 50.5715 129.397 50.4521 134.025 50.5752C138.85 50.7252 143.8 50.8502 149.125 50.8502V94.4752C144.675 94.8502 140.775 95.3752 136.75 95.3752C110.2 94.4752 108.75 103.575 106.825 125.7C105.675 139.375 107.35 153.575 106.3 167.375C105.25 181.175 103.55 194.975 100.825 208.65C97.05 228.175 84.825 242.9 68.025 255.275C100.675 276.5 104.325 309.3 106.55 342.775C107.6 360.75 107.05 378.85 109.025 396.675C110.325 410.475 115.65 414.1 130.125 414.5C135.85 414.625 141.825 414.5 148.625 414.5V457.325C106.425 464.5 71.4 452.525 62.8 416.725C60.075 403.7 58.275 390.3 57.6 376.725C56.7 362.425 58.275 348.075 57.075 333.75C54.1 294.575 49 281.275 11.5 279.45V230.75C14.1 230.125 16.825 229.6 19.6 229.325C40.3 228.3 49 221.925 53.425 201.6C55.65 190.3 56.825 178.7 57.325 167.1C58.9 144.7 58.25 122.075 62.025 99.8002C67.5 68.0252 87.15 52.6752 119.825 50.7002L120.046 50.6945Z" fill="black"/>
<path d="M359.95 52.9502C368.95 51.3752 378.05 50.7002 387.175 50.9752C423.5 52.0002 447.375 70.7752 450.1 110.475C451.4 131.05 451.275 151.875 452.575 172.45C453.075 183.65 454.775 194.725 457.5 205.55C462.075 222.45 470.95 228.45 488.775 229.25C491.775 229.35 494.525 229.75 498.55 230.275V279.1C496.3 279.725 494.1 280.25 491.875 280.525C468.075 282.075 457.1 291.975 454.775 315.8C453.2 331.025 453.325 346.525 452.3 361.9C451.9 378.7 450.325 395.5 447.725 412.025C441.625 442.225 422.725 457.325 391.75 459.15C381.7 459.825 371.675 459.15 360.875 459.15V415.65C366.6 415.3 371.675 414.9 376.875 414.625C395.525 414.225 402.025 408.25 402.95 389.75C403.975 369.45 404.475 349.1 405.275 329.075C406.575 299.65 414.65 273.475 441.85 255.25C426.375 244.05 413.875 230.525 410.475 212.425C406.575 190.4 405.4 167.9 403.175 145.5C402.125 134.3 402.125 123.1 401.1 112.025C400.075 99.9252 391.75 95.6252 380.775 95.5002C374.55 95.3752 368.175 95.3752 359.95 95.3752V52.9502Z" fill="black"/>
<path d="M154.6 283C119.075 279.6 121.675 226.875 157.475 226.875H158.15C173.65 227.15 186.025 240.05 185.75 255.55V257.075C184.85 272.325 171.8 283.9 156.575 283H154.6Z" fill="black"/>
<path d="M226.6 252.95C227.15 238.075 239.65 226.375 254.475 226.875V226.9C271.525 226.75 282.875 237.825 283 254.625C283 271.95 272.325 283.025 255.4 283.025C238.2 283.025 226.725 272.35 226.725 255.55C226.6 254.625 226.6 253.85 226.6 252.95Z" fill="black"/>
<path d="M324 254.75C324.55 239 337.575 226.6 353.175 226.875V226.9C368.95 226.9 382.75 240.2 381.975 255.425C381.05 271.825 366.85 285.5 352.675 283.025H352.4C336.625 283.025 324 270.375 324 254.75Z" fill="black"/>
</svg>
