<svg width="550" height="550" viewBox="0 0 550 550" fill="none" xmlns="http://www.w3.org/2000/svg">
<path d="M481 19C508.614 19 531 41.3858 531 69V481C531 508.614 508.614 531 481 531H69C41.3858 531 19 508.614 19 481V69C19 41.3858 41.3858 19 69 19H481ZM423.112 257C411.217 257 399.949 258.278 389.307 260.833C378.665 263.388 369.301 267.377 361.214 272.8C353.128 278.224 346.738 285.133 342.043 293.529C337.348 301.924 335 311.962 335 323.643C335 338.557 339.304 351.281 347.912 361.815C356.519 372.348 369.587 381.265 387.116 388.566C394.002 391.382 400.419 394.145 406.366 396.857C412.313 399.569 417.452 402.385 421.781 405.305C426.111 408.225 429.528 411.406 432.033 414.848C434.537 418.289 435.789 422.2 435.789 426.581C435.789 429.814 435.006 432.812 433.441 435.576C431.876 438.34 429.502 440.738 426.32 442.772C423.138 444.806 419.173 446.396 414.426 447.543C409.678 448.691 404.123 449.264 397.758 449.264C386.907 449.264 376.161 447.361 365.518 443.554C354.876 439.748 345.016 434.038 335.939 426.424V476.485C344.077 480.657 353.703 483.785 364.814 485.871C375.926 487.957 387.637 489 399.949 489C411.948 489 423.346 487.853 434.145 485.558C444.944 483.264 454.413 479.483 462.551 474.216C470.689 468.95 477.132 462.066 481.879 453.566C486.626 445.066 489 434.559 489 422.044C489 412.97 487.644 405.018 484.931 398.188C482.218 391.357 478.306 385.281 473.193 379.962C468.081 374.643 461.951 369.871 454.804 365.647C447.657 361.423 439.597 357.434 430.624 353.68C424.051 350.968 418.156 348.335 412.939 345.78C407.722 343.224 403.288 340.617 399.636 337.958C395.984 335.298 393.167 332.482 391.185 329.51C389.203 326.537 388.211 323.174 388.211 319.419C388.211 315.978 389.098 312.875 390.872 310.111C392.646 307.347 395.15 304.975 398.384 302.993C401.619 301.012 405.583 299.473 410.278 298.378C414.974 297.283 420.19 296.736 425.929 296.736C430.102 296.736 434.51 297.049 439.153 297.674C443.796 298.3 448.465 299.265 453.161 300.568C457.856 301.872 462.421 303.515 466.855 305.496C471.289 307.478 475.384 309.772 479.14 312.38V265.604C471.524 262.685 463.203 260.52 454.178 259.112C445.153 257.704 434.797 257 423.112 257ZM137 303.082H200.906V486H251.78V303.082H316V262H137V303.082Z" fill="#3178C6"/>
</svg>
