<svg width="220" height="33" viewBox="0 0 220 33" fill="none" xmlns="http://www.w3.org/2000/svg">
<g clip-path="url(#clip0_1862_4893)">
<path d="M14.1635 1.80078C9.5881 1.80078 7.20889 9.7315 5.43973 15.344C0.994098 19.0097 -1.02658 26.936 6.77248 29.9795C14.5715 33.023 22.4184 31.6076 25.1396 29.6285C28.5712 27.1328 29.3512 19.8015 25.1396 15.8629C30.0142 11.2447 33.6217 5.74033 30.0142 3.65713C27.2455 2.05828 22.323 6.03441 18.8809 12.8486C17.2138 12.5378 14.8956 12.4768 12.7145 12.8486C14.2714 8.68764 18.3178 1.80078 14.1635 1.80078Z" stroke="#8F8FFF" stroke-width="2.76923"/>
<path d="M9.16096 22.912C10.0724 22.912 10.8112 21.81 10.8112 20.4506C10.8112 19.0912 10.0724 17.9893 9.16096 17.9893C8.24957 17.9893 7.51074 19.0912 7.51074 20.4506C7.51074 21.81 8.24957 22.912 9.16096 22.912Z" fill="#8F8FFF"/>
<path d="M17.6502 23.4061C18.5616 23.4061 19.3004 22.3041 19.3004 20.9448C19.3004 19.5854 18.5616 18.4834 17.6502 18.4834C16.7388 18.4834 16 19.5854 16 20.9448C16 22.3041 16.7388 23.4061 17.6502 23.4061Z" fill="#8F8FFF"/>
<path d="M42.7422 25.9998V13.1038H45.1862L45.4202 14.9238C45.8362 14.2651 46.3822 13.7451 47.0582 13.3638C47.7515 12.9825 48.5489 12.7918 49.4502 12.7918C51.4955 12.7918 52.9169 13.5978 53.7142 15.2098C54.1822 14.4645 54.8062 13.8751 55.5862 13.4418C56.3835 13.0085 57.2415 12.7918 58.1602 12.7918C59.7722 12.7918 61.0375 13.2771 61.9562 14.2478C62.8749 15.2185 63.3342 16.6658 63.3342 18.5898V25.9998H60.5782V18.8758C60.5782 16.3798 59.6249 15.1318 57.7182 15.1318C56.7475 15.1318 55.9502 15.4958 55.3262 16.2238C54.7195 16.9518 54.4162 17.9918 54.4162 19.3438V25.9998H51.6602V18.8758C51.6602 16.3798 50.6982 15.1318 48.7742 15.1318C47.8209 15.1318 47.0322 15.4958 46.4082 16.2238C45.8015 16.9518 45.4982 17.9918 45.4982 19.3438V25.9998H42.7422ZM72.5906 26.3118C71.3253 26.3118 70.1986 26.0345 69.2106 25.4798C68.2399 24.9078 67.4773 24.1191 66.9226 23.1138C66.3679 22.1085 66.0906 20.9385 66.0906 19.6038C66.0906 18.2518 66.3593 17.0645 66.8966 16.0418C67.4513 15.0191 68.2139 14.2218 69.1846 13.6498C70.1726 13.0778 71.3166 12.7918 72.6166 12.7918C73.8819 12.7918 74.9826 13.0778 75.9186 13.6498C76.8546 14.2045 77.5826 14.9498 78.1026 15.8858C78.6226 16.8218 78.8826 17.8531 78.8826 18.9798C78.8826 19.1531 78.8739 19.3438 78.8566 19.5518C78.8566 19.7425 78.8479 19.9591 78.8306 20.2018H68.7946C68.8813 21.4498 69.2886 22.4031 70.0166 23.0618C70.7619 23.7031 71.6199 24.0238 72.5906 24.0238C73.3706 24.0238 74.0206 23.8505 74.5406 23.5038C75.0779 23.1398 75.4766 22.6545 75.7366 22.0478H78.4926C78.1459 23.2611 77.4526 24.2751 76.4126 25.0898C75.3899 25.9045 74.1159 26.3118 72.5906 26.3118ZM72.5906 15.0538C71.6719 15.0538 70.8573 15.3311 70.1466 15.8858C69.4359 16.4231 69.0026 17.2378 68.8466 18.3298H76.1266C76.0746 17.3245 75.7193 16.5271 75.0606 15.9378C74.4019 15.3485 73.5786 15.0538 72.5906 15.0538ZM81.7422 25.9998V13.1038H84.1862L84.4202 14.9238C84.8362 14.2651 85.3822 13.7451 86.0582 13.3638C86.7515 12.9825 87.5489 12.7918 88.4502 12.7918C90.4955 12.7918 91.9169 13.5978 92.7142 15.2098C93.1822 14.4645 93.8062 13.8751 94.5862 13.4418C95.3835 13.0085 96.2415 12.7918 97.1602 12.7918C98.7722 12.7918 100.037 13.2771 100.956 14.2478C101.875 15.2185 102.334 16.6658 102.334 18.5898V25.9998H99.5782V18.8758C99.5782 16.3798 98.6252 15.1318 96.7182 15.1318C95.7475 15.1318 94.9502 15.4958 94.3262 16.2238C93.7195 16.9518 93.4162 17.9918 93.4162 19.3438V25.9998H90.6602V18.8758C90.6602 16.3798 89.6982 15.1318 87.7742 15.1318C86.8209 15.1318 86.0322 15.4958 85.4082 16.2238C84.8015 16.9518 84.4982 17.9918 84.4982 19.3438V25.9998H81.7422ZM112.812 26.3118C111.807 26.3118 110.914 26.1125 110.134 25.7138C109.372 25.3151 108.765 24.7518 108.314 24.0238L108.028 25.9998H105.558V7.27979H108.314V15.1058C108.73 14.4991 109.302 13.9618 110.03 13.4938C110.758 13.0258 111.694 12.7918 112.838 12.7918C114.086 12.7918 115.187 13.0865 116.14 13.6758C117.094 14.2651 117.839 15.0711 118.376 16.0938C118.931 17.1165 119.208 18.2778 119.208 19.5778C119.208 20.8778 118.931 22.0391 118.376 23.0618C117.839 24.0671 117.094 24.8645 116.14 25.4538C115.187 26.0258 114.078 26.3118 112.812 26.3118ZM112.344 23.9198C113.523 23.9198 114.494 23.5211 115.256 22.7238C116.019 21.9091 116.4 20.8518 116.4 19.5518C116.4 18.7025 116.227 17.9485 115.88 17.2898C115.534 16.6311 115.057 16.1198 114.45 15.7558C113.844 15.3745 113.142 15.1838 112.344 15.1838C111.166 15.1838 110.195 15.5911 109.432 16.4058C108.687 17.2205 108.314 18.2691 108.314 19.5518C108.314 20.8518 108.687 21.9091 109.432 22.7238C110.195 23.5211 111.166 23.9198 112.344 23.9198ZM123.749 10.6598C123.229 10.6598 122.796 10.5038 122.449 10.1918C122.12 9.86249 121.955 9.45509 121.955 8.96979C121.955 8.48446 122.12 8.08579 122.449 7.77379C122.796 7.44446 123.229 7.27979 123.749 7.27979C124.269 7.27979 124.694 7.44446 125.023 7.77379C125.37 8.08579 125.543 8.48446 125.543 8.96979C125.543 9.45509 125.37 9.86249 125.023 10.1918C124.694 10.5038 124.269 10.6598 123.749 10.6598ZM122.371 25.9998V13.1038H125.127V25.9998H122.371ZM134.173 25.9998C132.908 25.9998 131.903 25.6965 131.157 25.0898C130.412 24.4658 130.039 23.3651 130.039 21.7878V15.4178H127.829V13.1038H130.039L130.377 9.82779H132.795V13.1038H136.435V15.4178H132.795V21.7878C132.795 22.4985 132.943 22.9925 133.237 23.2698C133.549 23.5298 134.078 23.6598 134.823 23.6598H136.305V25.9998H134.173Z" fill="#202327"/>
<path d="M154.03 12.9143C154.03 11.0627 154.03 10.1369 154.157 9.3629C154.826 5.30077 158.01 2.11689 162.072 1.44862C162.846 1.32129 163.772 1.32129 165.623 1.32129H204.349C210.027 1.32129 212.866 1.32129 215.008 2.48432C216.64 3.36999 217.98 4.70969 218.865 6.34116C220.028 8.48356 220.028 11.3225 220.028 17.0004C220.028 22.6783 220.028 25.5173 218.865 27.6597C217.98 29.2912 216.64 30.6309 215.008 31.5165C212.866 32.6796 210.027 32.6796 204.349 32.6796H165.577C163.768 32.6796 162.864 32.6796 162.107 32.558C158.017 31.9009 154.809 28.6932 154.152 24.6022C154.03 23.8457 154.03 22.9414 154.03 21.1327C154.03 20.9734 154.03 20.8937 154.021 20.8214C153.974 20.435 153.743 20.0956 153.4 19.9107C153.336 19.8761 153.262 19.847 153.114 19.7889L151.752 19.2552C149.325 18.3038 148.111 17.8281 148.114 17.0069C148.116 16.1857 149.333 15.7174 151.766 14.7809L153.102 14.2667C153.255 14.2077 153.331 14.1783 153.397 14.1428C153.74 13.959 153.972 13.6206 154.021 13.2348C154.03 13.1604 154.03 13.0783 154.03 12.9143Z" fill="#6B6BFF"/>
<path d="M172.636 24.0409C171.862 24.0409 171.176 23.8875 170.576 23.5809C169.989 23.2742 169.522 22.8409 169.176 22.2809L168.956 23.8009H167.056V9.40088H169.176V15.4209C169.496 14.9542 169.936 14.5409 170.496 14.1809C171.056 13.8209 171.776 13.6409 172.656 13.6409C173.616 13.6409 174.462 13.8675 175.196 14.3209C175.929 14.7742 176.502 15.3942 176.916 16.1809C177.342 16.9675 177.556 17.8609 177.556 18.8609C177.556 19.8609 177.342 20.7542 176.916 21.5409C176.502 22.3142 175.929 22.9275 175.196 23.3809C174.462 23.8209 173.609 24.0409 172.636 24.0409ZM172.276 22.2009C173.182 22.2009 173.929 21.8942 174.516 21.2809C175.102 20.6542 175.396 19.8409 175.396 18.8409C175.396 18.1875 175.262 17.6075 174.996 17.1009C174.729 16.5942 174.362 16.2009 173.896 15.9209C173.429 15.6275 172.889 15.4809 172.276 15.4809C171.369 15.4809 170.622 15.7942 170.036 16.4209C169.462 17.0475 169.176 17.8542 169.176 18.8409C169.176 19.8409 169.462 20.6542 170.036 21.2809C170.622 21.8942 171.369 22.2009 172.276 22.2009ZM184.489 24.0409C183.515 24.0409 182.649 23.8275 181.889 23.4009C181.142 22.9609 180.555 22.3542 180.129 21.5809C179.702 20.8075 179.489 19.9075 179.489 18.8809C179.489 17.8409 179.695 16.9275 180.109 16.1409C180.535 15.3542 181.122 14.7409 181.869 14.3009C182.629 13.8609 183.509 13.6409 184.509 13.6409C185.482 13.6409 186.329 13.8609 187.049 14.3009C187.769 14.7275 188.329 15.3009 188.729 16.0209C189.129 16.7409 189.329 17.5342 189.329 18.4009C189.329 18.5342 189.322 18.6809 189.309 18.8409C189.309 18.9875 189.302 19.1542 189.289 19.3409H181.569C181.635 20.3009 181.949 21.0342 182.509 21.5409C183.082 22.0342 183.742 22.2809 184.489 22.2809C185.089 22.2809 185.589 22.1475 185.989 21.8809C186.402 21.6009 186.709 21.2275 186.909 20.7609H189.029C188.762 21.6942 188.229 22.4742 187.429 23.1009C186.642 23.7275 185.662 24.0409 184.489 24.0409ZM184.489 15.3809C183.782 15.3809 183.155 15.5942 182.609 16.0209C182.062 16.4342 181.729 17.0609 181.609 17.9009H187.209C187.169 17.1275 186.895 16.5142 186.389 16.0609C185.882 15.6075 185.249 15.3809 184.489 15.3809ZM195.435 23.8009C194.461 23.8009 193.688 23.5675 193.115 23.1009C192.541 22.6209 192.255 21.7742 192.255 20.5609V15.6609H190.555V13.8809H192.255L192.515 11.3609H194.375V13.8809H197.175V15.6609H194.375V20.5609C194.375 21.1075 194.488 21.4875 194.715 21.7009C194.955 21.9009 195.361 22.0009 195.935 22.0009H197.075V23.8009H195.435ZM202.721 24.0409C201.881 24.0409 201.187 23.9009 200.641 23.6209C200.094 23.3409 199.687 22.9742 199.421 22.5209C199.154 22.0542 199.021 21.5475 199.021 21.0009C199.021 20.0409 199.394 19.2809 200.141 18.7209C200.887 18.1609 201.954 17.8809 203.341 17.8809H205.941V17.7009C205.941 16.9275 205.727 16.3475 205.301 15.9609C204.887 15.5742 204.347 15.3809 203.681 15.3809C203.094 15.3809 202.581 15.5275 202.141 15.8209C201.714 16.1009 201.454 16.5209 201.361 17.0809H199.241C199.307 16.3609 199.547 15.7475 199.961 15.2409C200.387 14.7209 200.921 14.3275 201.561 14.0609C202.214 13.7809 202.927 13.6409 203.701 13.6409C205.087 13.6409 206.161 14.0075 206.921 14.7409C207.681 15.4609 208.061 16.4475 208.061 17.7009V23.8009H206.221L206.041 22.1009C205.761 22.6475 205.354 23.1075 204.821 23.4809C204.287 23.8542 203.587 24.0409 202.721 24.0409ZM203.141 22.3209C203.714 22.3209 204.194 22.1875 204.581 21.9209C204.981 21.6409 205.287 21.2742 205.501 20.8209C205.727 20.3675 205.867 19.8675 205.921 19.3209H203.561C202.721 19.3209 202.121 19.4675 201.761 19.7609C201.414 20.0542 201.241 20.4209 201.241 20.8609C201.241 21.3142 201.407 21.6742 201.741 21.9409C202.087 22.1942 202.554 22.3209 203.141 22.3209Z" fill="white"/>
</g>
<defs>
<clipPath id="clip0_1862_4893">
<rect width="220" height="33" fill="white"/>
</clipPath>
</defs>
</svg>
