<svg width="223" height="36" viewBox="0 0 223 36" fill="none" xmlns="http://www.w3.org/2000/svg">
<path d="M16.1635 2.80078C11.5881 2.80078 9.20889 10.7315 7.43973 16.344C2.9941 20.0097 0.973422 27.936 8.77248 30.9795C16.5715 34.023 24.4184 32.6076 27.1396 30.6285C30.5712 28.1328 31.3512 20.8015 27.1396 16.8629C32.0142 12.2447 35.6217 6.74033 32.0142 4.65713C29.2455 3.05828 24.323 7.03441 20.8809 13.8486C19.2138 13.5378 16.8956 13.4768 14.7145 13.8486C16.2714 9.68764 20.3178 2.80078 16.1635 2.80078Z" stroke="#8F8FFF" stroke-width="2.76923"/>
<ellipse cx="11.161" cy="21.4506" rx="1.65022" ry="2.46136" fill="#8F8FFF"/>
<ellipse cx="19.6502" cy="21.9448" rx="1.65022" ry="2.46136" fill="#8F8FFF"/>
<path d="M44.742 27V14.104H47.186L47.42 15.924C47.836 15.2653 48.382 14.7453 49.058 14.364C49.7513 13.9827 50.5487 13.792 51.45 13.792C53.4953 13.792 54.9167 14.598 55.714 16.21C56.182 15.4647 56.806 14.8753 57.586 14.442C58.3833 14.0087 59.2413 13.792 60.16 13.792C61.772 13.792 63.0373 14.2773 63.956 15.248C64.8747 16.2187 65.334 17.666 65.334 19.59V27H62.578V19.876C62.578 17.38 61.6247 16.132 59.718 16.132C58.7473 16.132 57.95 16.496 57.326 17.224C56.7193 17.952 56.416 18.992 56.416 20.344V27H53.66V19.876C53.66 17.38 52.698 16.132 50.774 16.132C49.8207 16.132 49.032 16.496 48.408 17.224C47.8013 17.952 47.498 18.992 47.498 20.344V27H44.742ZM74.5904 27.312C73.3251 27.312 72.1984 27.0347 71.2104 26.48C70.2397 25.908 69.4771 25.1193 68.9224 24.114C68.3677 23.1087 68.0904 21.9387 68.0904 20.604C68.0904 19.252 68.3591 18.0647 68.8964 17.042C69.4511 16.0193 70.2137 15.222 71.1844 14.65C72.1724 14.078 73.3164 13.792 74.6164 13.792C75.8817 13.792 76.9824 14.078 77.9184 14.65C78.8544 15.2047 79.5824 15.95 80.1024 16.886C80.6224 17.822 80.8824 18.8533 80.8824 19.98C80.8824 20.1533 80.8737 20.344 80.8564 20.552C80.8564 20.7427 80.8477 20.9593 80.8304 21.202H70.7944C70.8811 22.45 71.2884 23.4033 72.0164 24.062C72.7617 24.7033 73.6197 25.024 74.5904 25.024C75.3704 25.024 76.0204 24.8507 76.5404 24.504C77.0777 24.14 77.4764 23.6547 77.7364 23.048H80.4924C80.1457 24.2613 79.4524 25.2753 78.4124 26.09C77.3897 26.9047 76.1157 27.312 74.5904 27.312ZM74.5904 16.054C73.6717 16.054 72.8571 16.3313 72.1464 16.886C71.4357 17.4233 71.0024 18.238 70.8464 19.33H78.1264C78.0744 18.3247 77.7191 17.5273 77.0604 16.938C76.4017 16.3487 75.5784 16.054 74.5904 16.054ZM83.742 27V14.104H86.186L86.42 15.924C86.836 15.2653 87.382 14.7453 88.058 14.364C88.7513 13.9827 89.5487 13.792 90.45 13.792C92.4953 13.792 93.9167 14.598 94.714 16.21C95.182 15.4647 95.806 14.8753 96.586 14.442C97.3833 14.0087 98.2413 13.792 99.16 13.792C100.772 13.792 102.037 14.2773 102.956 15.248C103.875 16.2187 104.334 17.666 104.334 19.59V27H101.578V19.876C101.578 17.38 100.625 16.132 98.718 16.132C97.7473 16.132 96.95 16.496 96.326 17.224C95.7193 17.952 95.416 18.992 95.416 20.344V27H92.66V19.876C92.66 17.38 91.698 16.132 89.774 16.132C88.8207 16.132 88.032 16.496 87.408 17.224C86.8013 17.952 86.498 18.992 86.498 20.344V27H83.742ZM114.812 27.312C113.807 27.312 112.914 27.1127 112.134 26.714C111.372 26.3153 110.765 25.752 110.314 25.024L110.028 27H107.558V8.28H110.314V16.106C110.73 15.4993 111.302 14.962 112.03 14.494C112.758 14.026 113.694 13.792 114.838 13.792C116.086 13.792 117.187 14.0867 118.14 14.676C119.094 15.2653 119.839 16.0713 120.376 17.094C120.931 18.1167 121.208 19.278 121.208 20.578C121.208 21.878 120.931 23.0393 120.376 24.062C119.839 25.0673 119.094 25.8647 118.14 26.454C117.187 27.026 116.078 27.312 114.812 27.312ZM114.344 24.92C115.523 24.92 116.494 24.5213 117.256 23.724C118.019 22.9093 118.4 21.852 118.4 20.552C118.4 19.7027 118.227 18.9487 117.88 18.29C117.534 17.6313 117.057 17.12 116.45 16.756C115.844 16.3747 115.142 16.184 114.344 16.184C113.166 16.184 112.195 16.5913 111.432 17.406C110.687 18.2207 110.314 19.2693 110.314 20.552C110.314 21.852 110.687 22.9093 111.432 23.724C112.195 24.5213 113.166 24.92 114.344 24.92ZM125.749 11.66C125.229 11.66 124.796 11.504 124.449 11.192C124.12 10.8627 123.955 10.4553 123.955 9.97C123.955 9.48467 124.12 9.086 124.449 8.774C124.796 8.44467 125.229 8.28 125.749 8.28C126.269 8.28 126.694 8.44467 127.023 8.774C127.37 9.086 127.543 9.48467 127.543 9.97C127.543 10.4553 127.37 10.8627 127.023 11.192C126.694 11.504 126.269 11.66 125.749 11.66ZM124.371 27V14.104H127.127V27H124.371ZM136.173 27C134.908 27 133.903 26.6967 133.157 26.09C132.412 25.466 132.039 24.3653 132.039 22.788V16.418H129.829V14.104H132.039L132.377 10.828H134.795V14.104H138.435V16.418H134.795V22.788C134.795 23.4987 134.943 23.9927 135.237 24.27C135.549 24.53 136.078 24.66 136.823 24.66H138.305V27H136.173Z" fill="#202327"/>
<path d="M156.03 13.9143C156.03 12.0627 156.03 11.1369 156.157 10.3629C156.826 6.30077 160.01 3.11689 164.072 2.44862C164.846 2.32129 165.772 2.32129 167.623 2.32129H206.349C212.027 2.32129 214.866 2.32129 217.008 3.48432C218.64 4.36999 219.98 5.70969 220.865 7.34116C222.028 9.48356 222.028 12.3225 222.028 18.0004C222.028 23.6783 222.028 26.5173 220.865 28.6597C219.98 30.2912 218.64 31.6309 217.008 32.5165C214.866 33.6796 212.027 33.6796 206.349 33.6796H167.577C165.768 33.6796 164.864 33.6796 164.107 33.558C160.017 32.9009 156.809 29.6932 156.152 25.6022C156.03 24.8457 156.03 23.9414 156.03 22.1327C156.03 21.9734 156.03 21.8937 156.021 21.8214C155.974 21.435 155.743 21.0956 155.4 20.9107C155.336 20.8761 155.262 20.847 155.114 20.7889L153.752 20.2552C151.325 19.3038 150.111 18.8281 150.114 18.0069C150.116 17.1857 151.333 16.7174 153.766 15.7809L155.102 15.2667C155.255 15.2077 155.331 15.1783 155.397 15.1428C155.74 14.959 155.972 14.6206 156.021 14.2348C156.03 14.1604 156.03 14.0783 156.03 13.9143Z" fill="#6B6BFF"/>
<path d="M174.636 25.0408C173.862 25.0408 173.176 24.8874 172.576 24.5808C171.989 24.2741 171.522 23.8408 171.176 23.2808L170.956 24.8008H169.056V10.4008H171.176V16.4208C171.496 15.9541 171.936 15.5408 172.496 15.1808C173.056 14.8208 173.776 14.6408 174.656 14.6408C175.616 14.6408 176.462 14.8674 177.196 15.3208C177.929 15.7741 178.502 16.3941 178.916 17.1808C179.342 17.9674 179.556 18.8608 179.556 19.8608C179.556 20.8608 179.342 21.7541 178.916 22.5408C178.502 23.3141 177.929 23.9274 177.196 24.3808C176.462 24.8208 175.609 25.0408 174.636 25.0408ZM174.276 23.2008C175.182 23.2008 175.929 22.8941 176.516 22.2808C177.102 21.6541 177.396 20.8408 177.396 19.8408C177.396 19.1874 177.262 18.6074 176.996 18.1008C176.729 17.5941 176.362 17.2008 175.896 16.9208C175.429 16.6274 174.889 16.4808 174.276 16.4808C173.369 16.4808 172.622 16.7941 172.036 17.4208C171.462 18.0474 171.176 18.8541 171.176 19.8408C171.176 20.8408 171.462 21.6541 172.036 22.2808C172.622 22.8941 173.369 23.2008 174.276 23.2008ZM186.489 25.0408C185.515 25.0408 184.649 24.8274 183.889 24.4008C183.142 23.9608 182.555 23.3541 182.129 22.5808C181.702 21.8074 181.489 20.9074 181.489 19.8808C181.489 18.8408 181.695 17.9274 182.109 17.1408C182.535 16.3541 183.122 15.7408 183.869 15.3008C184.629 14.8608 185.509 14.6408 186.509 14.6408C187.482 14.6408 188.329 14.8608 189.049 15.3008C189.769 15.7274 190.329 16.3008 190.729 17.0208C191.129 17.7408 191.329 18.5341 191.329 19.4008C191.329 19.5341 191.322 19.6808 191.309 19.8408C191.309 19.9874 191.302 20.1541 191.289 20.3408H183.569C183.635 21.3008 183.949 22.0341 184.509 22.5408C185.082 23.0341 185.742 23.2808 186.489 23.2808C187.089 23.2808 187.589 23.1474 187.989 22.8808C188.402 22.6008 188.709 22.2274 188.909 21.7608H191.029C190.762 22.6941 190.229 23.4741 189.429 24.1008C188.642 24.7274 187.662 25.0408 186.489 25.0408ZM186.489 16.3808C185.782 16.3808 185.155 16.5941 184.609 17.0208C184.062 17.4341 183.729 18.0608 183.609 18.9008H189.209C189.169 18.1274 188.895 17.5141 188.389 17.0608C187.882 16.6074 187.249 16.3808 186.489 16.3808ZM197.435 24.8008C196.461 24.8008 195.688 24.5674 195.115 24.1008C194.541 23.6208 194.255 22.7741 194.255 21.5608V16.6608H192.555V14.8808H194.255L194.515 12.3608H196.375V14.8808H199.175V16.6608H196.375V21.5608C196.375 22.1074 196.488 22.4874 196.715 22.7008C196.955 22.9008 197.361 23.0008 197.935 23.0008H199.075V24.8008H197.435ZM204.721 25.0408C203.881 25.0408 203.187 24.9008 202.641 24.6208C202.094 24.3408 201.687 23.9741 201.421 23.5208C201.154 23.0541 201.021 22.5474 201.021 22.0008C201.021 21.0408 201.394 20.2808 202.141 19.7208C202.887 19.1608 203.954 18.8808 205.341 18.8808H207.941V18.7008C207.941 17.9274 207.727 17.3474 207.301 16.9608C206.887 16.5741 206.347 16.3808 205.681 16.3808C205.094 16.3808 204.581 16.5274 204.141 16.8208C203.714 17.1008 203.454 17.5208 203.361 18.0808H201.241C201.307 17.3608 201.547 16.7474 201.961 16.2408C202.387 15.7208 202.921 15.3274 203.561 15.0608C204.214 14.7808 204.927 14.6408 205.701 14.6408C207.087 14.6408 208.161 15.0074 208.921 15.7408C209.681 16.4608 210.061 17.4474 210.061 18.7008V24.8008H208.221L208.041 23.1008C207.761 23.6474 207.354 24.1074 206.821 24.4808C206.287 24.8541 205.587 25.0408 204.721 25.0408ZM205.141 23.3208C205.714 23.3208 206.194 23.1874 206.581 22.9208C206.981 22.6408 207.287 22.2741 207.501 21.8208C207.727 21.3674 207.867 20.8674 207.921 20.3208H205.561C204.721 20.3208 204.121 20.4674 203.761 20.7608C203.414 21.0541 203.241 21.4208 203.241 21.8608C203.241 22.3141 203.407 22.6741 203.741 22.9408C204.087 23.1941 204.554 23.3208 205.141 23.3208Z" fill="white"/>
</svg>
